<svg xmlns="http://www.w3.org/2000/svg" width="32" height="32">
    <path fill-rule="evenodd" fill="#3E3E3E" d="M31.105 18.093a2.982 2.982 0 0 1-2.121.879c-.347 0-.682-.069-1-.181v11.192a2.003 2.003 0 0 1-2 2.002h-4c-1.103 0-2-.898-2-2.002v-7.007h-8v7.007a2.003 2.003 0 0 1-2 2.002h-4c-1.103 0-2-.898-2-2.002V18.791a3 3 0 0 1-1 .181 2.984 2.984 0 0 1-2.121-.879 3.008 3.008 0 0 1 0-4.247l13-13.012C14.997-.3 16.972-.3 18.105.834l13 13.012a3.008 3.008 0 0 1 0 4.247zM5.984 29.983h4v-7.007c0-1.103.897-2.002 2-2.002h8c1.103 0 2 .899 2 2.002v7.007h4v-12.77l-10-10.01-10 10.01v12.77zM13.863 5.08a2.997 2.997 0 0 1-.577-.838L2.277 15.262a1.004 1.004 0 0 0 0 1.415 1.023 1.023 0 0 0 1.414 0L14.57 5.788l-.707-.708zm2.828-2.831a.993.993 0 0 0-.707-.293.993.993 0 0 0-.707.293 1.004 1.004 0 0 0 0 1.415l.707.708.707-.708c.39-.389.39-1.025 0-1.415zm13 13.013L18.682 4.242a2.976 2.976 0 0 1-.577.838l-.707.708 10.879 10.889a1.023 1.023 0 0 0 1.414 0c.39-.39.39-1.025 0-1.415zm-9.707-.294a4.006 4.006 0 0 1-4 4.004c-2.205 0-4-1.795-4-4.004a4.007 4.007 0 0 1 4-4.004c2.206 0 4 1.796 4 4.004zm-6 0c0 1.104.897 2.002 2 2.002a2.003 2.003 0 0 0 0-4.004c-1.103 0-2 .899-2 2.002z"/>
</svg>
