<svg xmlns="http://www.w3.org/2000/svg" width="32" height="32">
    <path fill-rule="evenodd" fill="#3E3E3E" d="M.433 21.175 30.424.184h.001c.007-.005.016-.007.023-.012.025-.016.054-.026.08-.04.031-.017.06-.033.091-.046.039-.016.078-.03.119-.042.036-.01.071-.013.108-.019.024-.004.048-.011.073-.013.011-.001.023-.006.035-.007.045-.002.09.009.134.013.037.004.071.004.107.011a.581.581 0 0 1 .091.024c.034.01.063.024.096.038.04.017.082.027.121.049l.017.014c.004.002.009.002.013.005.014.008.02.022.033.032.019.013.035.027.052.041.016.012.035.016.051.03.007.007.01.018.018.025.035.034.065.072.095.11.021.027.04.054.058.083.019.03.04.058.056.088.009.021.013.044.021.064.014.036.027.072.037.109.006.019.015.036.02.056.007.035.006.07.01.105a.766.766 0 0 1 .004.107c0 .031.008.062.005.094l-2.991 29.991a1.001 1.001 0 0 1-1.474.778l-11-6c-.025-.013-.039-.036-.062-.051l-3.615 5.709c-.033.052-.074.093-.114.138-.013.013-.022.029-.036.042a.958.958 0 0 1-.278.187c-.023.011-.046.018-.07.027a1.021 1.021 0 0 1-.345.071h-.002a1.01 1.01 0 0 1-.438-.113c-.032-.015-.066-.023-.097-.043-.031-.019-.047-.05-.076-.073a.933.933 0 0 1-.252-.296.943.943 0 0 1-.116-.371c-.003-.036-.021-.067-.021-.105v-8H1.007a1 1 0 0 1-.574-1.819zm12.574 6.371L23.908 10.33 13.007 22.38v5.166zm14.154 1.848 2.423-24.288L17.53 24.141l9.631 5.253zm-15.598-8.4L24.31 6.904 4.179 20.994h7.384z"/>
</svg>
