<svg xmlns="http://www.w3.org/2000/svg" width="32" height="32">
    <path fill-rule="evenodd" fill="#3E3E3E" d="M5.082 31.988a3.54 3.54 0 0 1-2.512-1.037l-.899-.899c-3.93-3.922-.77-13.222 7.193-21.17C14.348 3.41 20.7.012 25.444.012c1.92 0 3.522.584 4.631 1.691l.899.898a3.52 3.52 0 0 1 1.041 2.508c0 .948-.37 1.838-1.042 2.507l-3.596 3.59c-1.341 1.34-3.683 1.338-5.025 0l-.899-.898c-.289-.289-.66-.429-1.134-.429-.898 0-2.926.522-6.43 4.019-4.114 4.106-4.555 6.592-3.597 7.55l.9.897a3.546 3.546 0 0 1 0 5.014l-3.597 3.59a3.534 3.534 0 0 1-2.513 1.039zM25.444 2.027c-4.163 0-10.111 3.25-15.152 8.281C3.368 17.218.074 25.607 3.099 28.627l.898.897c.58.577 1.589.578 2.171 0l3.596-3.59a1.53 1.53 0 0 0 0-2.163l-.9-.898c-1.025-1.025-2.728-4.089 3.597-10.401 3.065-3.058 5.709-4.609 7.858-4.609 1.009 0 1.894.352 2.562 1.019l.899.898c.58.58 1.589.578 2.169 0l3.597-3.59c.29-.289.449-.673.449-1.081 0-.408-.159-.793-.449-1.083l-.899-.897c-.732-.732-1.81-1.102-3.203-1.102z"/>
</svg>
